<svg width="216" height="216" viewBox="0 0 216 216" fill="none" xmlns="http://www.w3.org/2000/svg">
<path d="M67 66H1V107.5H108V1H67V66Z" fill="black"/>
<path d="M67 66H1V107.5H108V1H67V66Z" fill="black"/>
<path d="M67 66H1V107.5H108V1H67V66Z" stroke="black"/>
<path d="M148.727 149.957L214.723 150.698L215.188 109.201L108.195 108L107 214.493L147.997 214.953L148.727 149.957Z" fill="black"/>
<path d="M148.727 149.957L214.723 150.698L215.188 109.201L108.195 108L107 214.493L147.997 214.953L148.727 149.957Z" fill="black"/>
<path d="M148.727 149.957L214.723 150.698L215.188 109.201L108.195 108L107 214.493L147.997 214.953L148.727 149.957Z" stroke="black"/>
</svg>
